# Blender v2.79 (sub 0) OBJ File: 'untitled.blend'
# www.blender.org
mtllib locker.mtl
o Cube
v 0.494741 -0.470825 -0.479747
v 0.494741 -0.470825 0.479747
v -0.494742 -0.485820 0.494741
v -0.494741 -0.485820 -0.494742
v 0.494742 0.488669 -0.479747
v 0.494741 0.488669 0.479747
v -0.494742 0.503663 0.494741
v -0.494741 0.503663 -0.494741
v 0.494741 -0.485820 -0.494741
v 0.494741 -0.485820 0.494741
v 0.494742 0.503663 -0.494741
v 0.494741 0.503663 0.494742
v 0.391355 -0.470825 -0.479747
v 0.391355 -0.470825 0.479747
v 0.391355 0.488669 -0.479747
v 0.391354 0.488669 0.479747
v 0.382124 -0.086161 0.112064
v 0.382124 -0.164580 0.319756
v 0.382124 -0.024653 0.135288
v 0.382124 -0.103072 0.342980
v 0.447870 -0.086161 0.112064
v 0.509341 0.164608 -0.303354
v 0.447870 -0.024653 0.135288
v 0.443595 0.086189 -0.095662
v 0.382124 0.103101 -0.326578
v 0.382124 0.024682 -0.118886
v 0.382124 0.164608 -0.303354
v 0.382124 0.086189 -0.095662
v 0.443595 0.024682 -0.118886
v 0.447870 0.024682 -0.118886
v 0.443595 0.103101 -0.326578
v 0.447870 0.086189 -0.095662
v 0.382124 -0.090489 -0.086881
v 0.382124 -0.298181 -0.165300
v 0.382124 -0.113713 -0.025373
v 0.382124 -0.321405 -0.103792
v 0.447870 -0.090489 -0.086881
v 0.443595 0.164608 -0.303354
v 0.447870 -0.113713 -0.025373
v 0.509341 -0.164580 0.319756
v 0.119411 -0.149030 0.158182
v 0.119411 0.166198 0.158182
v 0.119411 -0.149030 -0.157046
v 0.119411 0.166198 -0.157046
v 0.509341 -0.086161 0.112064
v 0.509341 -0.103072 0.342980
v 0.509341 -0.024653 0.135288
v 0.443595 -0.024653 0.135288
v 0.119411 -0.198463 0.000568
v 0.119411 0.215630 0.000568
v 0.443595 -0.103072 0.342980
v 0.443595 -0.164580 0.319756
v 0.119411 0.008584 0.218026
v 0.119411 0.008584 -0.216890
v 0.443595 -0.086161 0.112064
v 0.452825 0.488669 0.479747
v 0.452826 0.488669 -0.479747
v 0.119411 0.008584 0.000568
v 0.382124 0.348152 0.102381
v 0.382124 0.140461 0.023962
v 0.382124 0.324929 0.163889
v 0.382124 0.117237 0.085470
v 0.452826 -0.470825 0.479747
v 0.447870 0.140461 0.023962
v 0.452826 -0.470825 -0.479747
v 0.447870 0.117237 0.085470
v 0.494741 -0.470825 -0.479747
v 0.494741 -0.470825 0.479747
v 0.391355 -0.470825 -0.479747
v 0.391355 -0.470825 0.479747
v 0.391355 0.488669 -0.479747
v 0.391354 0.488669 0.479747
v 0.382124 -0.086161 0.112064
v 0.382124 -0.164580 0.319756
v 0.382124 -0.103072 0.342980
v 0.382124 -0.024653 0.135288
v 0.447870 -0.024653 0.135288
v 0.447870 -0.086161 0.112064
v 0.382124 0.164608 -0.303354
v 0.382124 0.103101 -0.326578
v 0.382124 0.024682 -0.118886
v 0.382124 0.086189 -0.095662
v 0.447870 0.086189 -0.095662
v 0.447870 0.024682 -0.118886
v 0.382124 -0.090489 -0.086881
v 0.382124 -0.298181 -0.165300
v 0.382124 -0.321405 -0.103792
v 0.382124 -0.113713 -0.025373
v 0.447870 -0.113713 -0.025373
v 0.447870 -0.090489 -0.086881
v 0.119411 -0.198463 0.000568
v 0.119411 -0.149030 0.158182
v 0.119411 0.008584 0.218026
v 0.119411 0.166198 0.158182
v 0.119411 0.215630 0.000568
v 0.119411 0.166198 -0.157046
v 0.119411 0.008584 -0.216890
v 0.119411 -0.149030 -0.157046
v 0.382124 0.324929 0.163889
v 0.382124 0.348152 0.102381
v 0.382124 0.140461 0.023962
v 0.382124 0.117237 0.085470
v 0.447870 0.117237 0.085470
v 0.447870 0.140461 0.023962
v 0.509341 0.086189 -0.095662
v 0.509341 0.103101 -0.326578
v 0.509341 0.024682 -0.118886
v 0.443595 -0.090489 -0.086881
v 0.443595 -0.298181 -0.165300
v 0.443595 -0.321405 -0.103792
v 0.443595 -0.113713 -0.025373
v 0.509341 -0.113713 -0.025373
v 0.509341 -0.321405 -0.103792
v 0.509341 -0.090489 -0.086881
v 0.509341 -0.298181 -0.165300
v 0.180882 -0.198463 0.000568
v 0.180882 -0.149030 0.158182
v 0.180882 0.008584 0.218026
v 0.180882 0.166198 0.158182
v 0.180882 0.215630 0.000568
v 0.180882 0.166198 -0.157046
v 0.180882 0.008584 -0.216890
v 0.180882 -0.149030 -0.157046
v 0.527093 -0.149030 -0.157046
v 0.527093 0.166198 -0.157046
v 0.527093 0.008584 -0.216890
v 0.527093 -0.198463 0.000568
v 0.527093 0.215630 0.000568
v 0.527093 0.166198 0.158182
v 0.527093 0.008584 0.218026
v 0.527093 -0.149030 0.158182
v 0.527093 0.008584 0.000568
v 0.443595 0.324929 0.163889
v 0.443595 0.348152 0.102381
v 0.443595 0.140461 0.023962
v 0.443595 0.117237 0.085470
v 0.509341 0.324929 0.163889
v 0.509341 0.117237 0.085470
v 0.509341 0.348152 0.102381
v 0.509341 0.140461 0.023962
vt 0.391674 0.363044
vt 0.379148 0.277840
vt 0.369558 0.290518
vt 0.384369 0.345653
vt 0.366894 0.312272
vt 0.366894 0.270743
vt 0.360979 0.265389
vt 0.355086 0.312398
vt 0.399465 0.381830
vt 0.389079 0.264282
vt 0.556113 0.487821
vt 0.556113 0.473155
vt 0.556113 0.473155
vt 0.556113 0.487821
vt 0.390161 0.311513
vt 0.378817 0.280706
vt 0.541448 0.473155
vt 0.541448 0.487821
vt 0.541448 0.487821
vt 0.541448 0.473155
vt 0.541448 0.473155
vt 0.556113 0.473155
vt 0.556113 0.487821
vt 0.541448 0.487821
vt 0.384369 0.345653
vt 0.390161 0.311513
vt 0.556113 0.473155
vt 0.541448 0.473155
vt 0.541448 0.473155
vt 0.556113 0.473155
vt 0.556113 0.487821
vt 0.556113 0.473155
vt 0.556113 0.473155
vt 0.556113 0.487821
vt 0.541448 0.473155
vt 0.541448 0.487821
vt 0.541448 0.473155
vt 0.541448 0.473155
vt 0.556113 0.473155
vt 0.556113 0.487821
vt 0.541448 0.487821
vt 0.541448 0.487821
vt 0.556113 0.487821
vt 0.556113 0.487821
vt 0.541448 0.487821
vt 0.556113 0.473155
vt 0.556113 0.473155
vt 0.556113 0.487821
vt 0.541448 0.487821
vt 0.556113 0.487821
vt 0.541448 0.473155
vt 0.556113 0.473155
vt 0.556113 0.487821
vt 0.541448 0.487821
vt 0.556113 0.473155
vt 0.556113 0.473155
vt 0.541448 0.473155
vt 0.541448 0.473155
vt 0.556113 0.473155
vt 0.541448 0.473155
vt 0.541448 0.487821
vt 0.556113 0.487821
vt 0.541448 0.487821
vt 0.541448 0.473155
vt 0.541448 0.473155
vt 0.556113 0.487821
vt 0.541448 0.487821
vt 0.541448 0.473155
vt 0.556113 0.473155
vt 0.556113 0.473155
vt 0.366894 0.270743
vt 0.378817 0.280706
vt 0.541448 0.487821
vt 0.556113 0.487821
vt 0.556113 0.487821
vt 0.541448 0.487821
vt 0.541448 0.473155
vt 0.366894 0.312272
vt 0.541448 0.487821
vt 0.556113 0.487821
vt 0.541448 0.487821
vt 0.378049 0.307317
vt 0.378049 0.307317
vt 0.378049 0.307317
vt 0.378049 0.307317
vt 0.541448 0.473155
vt 0.556113 0.473155
vt 0.541448 0.473155
vt 0.556113 0.473155
vt 0.541448 0.473155
vt 0.556113 0.473155
vt 0.556113 0.487821
vt 0.541448 0.487821
vt 0.369558 0.290518
vt 0.369558 0.290518
vt 0.384369 0.345653
vt 0.556113 0.473155
vt 0.378817 0.280706
vt 0.556113 0.487821
vt 0.541448 0.487821
vt 0.556113 0.487821
vt 0.541448 0.487821
vt 0.541448 0.473155
vt 0.390161 0.311513
vt 0.541448 0.473155
vt 0.556113 0.473155
vt 0.556113 0.487821
vt 0.556113 0.487821
vt 0.541448 0.487821
vt 0.378049 0.307317
vt 0.378049 0.307317
vt 0.556113 0.473155
vt 0.541448 0.473155
vt 0.541448 0.487821
vt 0.556113 0.487821
vt 0.541448 0.487821
vt 0.556113 0.487821
vt 0.541448 0.487821
vt 0.541448 0.473155
vt 0.556113 0.473155
vt 0.556113 0.487821
vt 0.541448 0.487821
vt 0.541448 0.473155
vt 0.556113 0.473155
vt 0.556113 0.487821
vt 0.556113 0.473155
vt 0.541448 0.487821
vt 0.541448 0.473155
vt 0.995535 0.999909
vt 0.000091 0.999909
vt 0.000091 0.000091
vt 0.995535 0.000092
vt 0.999902 0.998287
vt 0.000099 0.998288
vt 0.000098 0.000099
vt 0.999901 0.000098
vt 0.999902 0.000098
vt 0.999901 0.998288
vt 0.000098 0.998288
vt 0.000091 0.999909
vt 0.997921 0.000091
vt 0.997921 0.999909
vt 0.999900 0.000100
vt 0.999900 0.999900
vt 0.000100 0.999900
vt 0.000100 0.000100
vt 0.995535 0.000091
vt 0.995535 0.999909
vt 0.000091 0.999908
vt 0.000092 0.000091
vt 0.011708 0.097958
vt 0.026374 0.097958
vt 0.026374 0.112624
vt 0.011708 0.112624
vt 0.011708 0.097958
vt 0.026374 0.097958
vt 0.026374 0.112624
vt 0.011708 0.112624
vt 0.011708 0.097958
vt 0.026374 0.097958
vt 0.026374 0.112624
vt 0.011708 0.112624
vt 0.011708 0.097958
vt 0.026374 0.097958
vt 0.026374 0.112624
vt 0.011708 0.112624
vt 0.011708 0.097958
vt 0.026374 0.097958
vt 0.026374 0.112624
vt 0.011708 0.112624
vt 0.011708 0.097958
vt 0.026374 0.097958
vt 0.026374 0.112624
vt 0.011708 0.112624
vt 0.026374 0.097958
vt 0.026374 0.112624
vt 0.011708 0.097958
vt 0.026374 0.097958
vt 0.026374 0.112624
vt 0.011708 0.112624
vt 0.011708 0.097958
vt 0.026374 0.097958
vt 0.026374 0.112624
vt 0.011708 0.112624
vt 0.011708 0.097958
vt 0.026374 0.097958
vt 0.026374 0.112624
vt 0.011708 0.112624
vt 0.011708 0.097958
vt 0.011708 0.112624
vt 0.021570 0.108632
vt 0.018208 0.112622
vt 0.016778 0.105881
vt 0.017100 0.105621
vt 0.016640 0.105291
vt 0.016394 0.105841
vt 0.016086 0.105474
vt 0.016179 0.104961
vt 0.011709 0.106956
vt 0.011709 0.101950
vt 0.019479 0.099428
vt 0.016885 0.104740
vt 0.016502 0.104701
vt 0.015071 0.097959
vt 0.013800 0.111154
vt 0.021570 0.103625
vt 0.017193 0.105108
vt 0.011708 0.097958
vt 0.026374 0.097958
vt 0.026374 0.112624
vt 0.011708 0.112624
vt 0.011708 0.097958
vt 0.026374 0.097958
vt 0.026374 0.112624
vt 0.011708 0.112624
vt 0.011708 0.097958
vt 0.026374 0.097958
vt 0.026374 0.112624
vt 0.011708 0.112624
vt 0.026374 0.097958
vt 0.026374 0.112624
vt 0.000000 0.000000
vt 0.000000 0.000000
vt 0.000000 0.000000
vt 0.000000 0.000000
vt 0.000000 0.000000
vt 0.000000 0.000000
vt 0.000000 0.000000
vt 0.000000 0.000000
vt 0.000000 0.000000
vt 0.000000 0.000000
vt 0.000000 0.000000
vt 0.000000 0.000000
vt 0.000000 0.000000
vt 0.000000 0.000000
vt 0.000000 0.000000
vt 0.000000 0.000000
vt 0.000000 0.000000
vt 0.000000 0.000000
vt 0.000000 0.000000
vt 0.000000 0.000000
vt 0.000000 0.000000
vt 0.000000 0.000000
vt 0.000000 0.000000
vt 0.000000 0.000000
vt 0.000000 0.000000
vn 0.0000 -1.0000 -0.0000
vn 1.0000 0.0000 0.0000
vn 0.0000 0.0000 1.0000
vn 0.0000 0.0000 -1.0000
vn -1.0000 0.0000 0.0000
vn 0.0000 0.3532 -0.9355
vn 0.0000 -0.3532 0.9355
vn 0.0000 0.9355 0.3532
vn 0.0000 -0.9355 -0.3532
vn 0.0000 1.0000 0.0000
vn 0.0000 0.3550 -0.9349
vn 0.0000 0.3550 0.9349
vn 0.0000 -0.9542 0.2993
vn 0.0000 0.9542 0.2993
vn -0.0000 0.9542 -0.2993
vn -0.0000 -0.9542 -0.2993
vn 0.0000 -0.3550 0.9349
vn -0.0000 -0.3550 -0.9349
usemtl Material.002
s off
f 5/1/1 6/2/1 16/3/1 15/4/1
f 1/5/2 2/6/2 10/7/2 9/8/2
f 5/1/2 1/5/2 9/8/2 11/9/2
f 2/6/2 6/2/2 12/10/2 10/7/2
f 6/2/2 5/1/2 11/9/2 12/10/2
f 21/11/3 23/12/3 77/13/3 78/14/3
f 1/5/3 5/1/3 15/4/3 13/15/3
f 6/2/4 2/6/4 14/16/4 16/3/4
f 32/17/3 30/18/3 84/19/3 83/20/3
f 17/21/5 18/22/5 20/23/5 19/24/5
f 13/15/3 15/4/3 71/25/3 69/26/3
f 62/27/3 66/28/3 103/29/3 102/30/3
f 37/31/3 39/32/3 89/33/3 90/34/3
f 19/35/6 23/12/6 21/11/6 17/36/6
f 23/12/3 19/35/3 76/37/3 77/13/3
f 25/38/5 26/39/5 28/40/5 27/41/5
f 61/42/3 62/43/3 102/44/3 99/45/3
f 28/46/3 32/17/3 83/20/3 82/47/3
f 19/24/3 20/23/3 75/48/3 76/49/3
f 32/17/7 28/46/7 26/50/7 30/18/7
f 33/51/5 34/52/5 36/53/5 35/54/5
f 20/23/3 18/22/3 74/55/3 75/48/3
f 60/56/3 59/57/3 100/58/3 101/59/3
f 35/60/8 39/32/8 37/31/8 33/61/8
f 27/41/3 28/40/3 82/62/3 79/63/3
f 39/32/3 35/60/3 88/64/3 89/33/3
f 18/22/3 17/21/3 73/65/3 74/55/3
f 59/57/3 61/42/3 99/45/3 100/58/3
f 35/54/3 36/53/3 87/66/3 88/67/3
f 26/39/3 25/38/3 80/68/3 81/69/3
f 36/53/3 34/52/3 86/70/3 87/66/3
f 14/16/3 2/6/3 68/71/3 70/72/3
f 25/38/3 27/41/3 79/63/3 80/68/3
f 64/73/3 60/74/3 101/75/3 104/76/3
f 34/52/3 33/51/3 85/77/3 86/70/3
f 1/5/3 13/15/3 69/26/3 67/78/3
f 59/57/5 60/56/5 62/43/5 61/42/5
f 2/6/3 1/5/3 67/78/3 68/71/3
f 17/36/3 21/11/3 78/14/3 73/79/3
f 66/28/9 62/27/9 60/74/9 64/73/9
f 79/63/8 82/62/8 24/80/8 38/81/8
f 68/82/10 67/83/10 69/84/10 70/85/10
f 81/69/9 80/68/9 31/86/9 29/87/9
f 89/33/3 88/64/3 111/88/3 112/89/3
f 102/30/3 103/29/3 138/90/3 136/91/3
f 80/68/6 79/63/6 38/81/6 31/86/6
f 88/67/7 87/66/7 110/92/7 111/93/7
f 71/25/10 72/94/10 56/95/10 57/96/10
f 87/66/9 86/70/9 109/97/9 110/92/9
f 72/94/3 70/72/3 63/98/3 56/95/3
f 99/45/7 102/44/7 136/99/7 133/100/7
f 73/79/3 78/14/3 45/101/3 55/102/3
f 86/70/6 85/77/6 108/103/6 109/97/6
f 69/26/4 71/25/4 57/96/4 65/104/4
f 101/59/6 100/58/6 134/105/6 135/106/6
f 84/19/3 81/107/3 29/108/3 107/109/3
f 70/85/1 69/84/1 65/110/1 63/111/1
f 100/58/8 99/45/8 133/100/8 134/105/8
f 78/14/6 77/13/6 47/112/6 45/101/6
f 83/20/7 84/19/7 107/109/7 105/113/7
f 85/114/3 90/34/3 114/115/3 108/116/3
f 104/76/3 101/75/3 135/117/3 140/118/3
f 33/61/3 37/31/3 90/34/3 85/114/3
f 16/3/3 14/16/3 70/72/3 72/94/3
f 15/4/3 16/3/3 72/94/3 71/25/3
f 66/28/3 64/73/3 104/76/3 103/29/3
f 30/18/3 26/50/3 81/107/3 84/19/3
f 46/119/7 51/120/7 52/121/7 40/122/7
f 74/55/9 73/65/9 55/123/9 52/124/9
f 103/29/9 104/76/9 140/118/9 138/90/9
f 75/48/7 74/55/7 52/124/7 51/125/7
f 90/34/8 89/33/8 112/89/8 114/115/8
f 82/47/3 83/20/3 105/113/3 24/126/3
f 76/49/8 75/48/8 51/125/8 48/127/8
f 77/13/3 76/37/3 48/128/3 47/112/3
usemtl Material.002_default_steel_block.png
f 9/129/1 10/130/1 3/131/1 4/132/1
f 11/133/10 8/134/10 7/135/10 12/136/10
f 10/137/3 12/138/3 7/139/3 3/131/3
f 3/140/5 7/135/5 8/141/5 4/142/5
f 11/143/4 9/144/4 4/145/4 8/146/4
f 65/147/2 57/148/2 56/149/2 63/150/2
f 48/151/8 51/152/8 46/153/8 47/154/8
f 47/155/2 46/156/2 40/157/2 45/158/2
f 45/159/9 40/160/9 52/161/9 55/162/9
f 38/163/8 24/164/8 105/165/8 22/166/8
f 22/167/2 105/168/2 107/169/2 106/170/2
f 106/171/9 107/172/9 29/173/9 31/174/9
f 38/163/6 22/175/6 106/176/6 31/174/6
f 111/177/7 110/178/7 113/179/7 112/180/7
f 112/181/2 113/182/2 115/183/2 114/184/2
f 114/185/6 115/186/6 109/187/6 108/188/6
f 113/189/9 110/178/9 109/187/9 115/190/9
f 122/191/11 121/192/11 125/193/11 126/194/11
f 132/195/2 128/196/2 129/197/2 130/198/2
f 130/198/12 129/197/12 119/199/12 118/200/12
f 116/201/13 127/202/13 131/203/13 117/204/13
f 128/196/14 120/205/14 119/199/14 129/197/14
f 125/193/15 121/192/15 120/205/15 128/196/15
f 123/206/16 124/207/16 127/202/16 116/201/16
f 126/194/2 125/193/2 128/196/2 132/195/2
f 124/207/2 126/194/2 132/195/2 127/202/2
f 131/203/17 130/198/17 118/200/17 117/204/17
f 127/202/2 132/195/2 130/198/2 131/203/2
f 123/206/18 122/191/18 126/194/18 124/207/18
f 133/208/7 136/209/7 138/210/7 137/211/7
f 137/212/2 138/213/2 140/214/2 139/215/2
f 139/216/6 140/217/6 135/218/6 134/219/6
f 133/208/8 137/220/8 139/221/8 134/219/8
usemtl Material.002_NONE
f 54/222/3 44/223/3 96/224/3 97/225/3
f 53/226/3 41/227/3 92/228/3 93/229/3
f 58/230/5 50/231/5 44/223/5 54/222/5
f 43/232/3 54/222/3 97/225/3 98/233/3
f 53/226/5 42/234/5 50/231/5 58/230/5
f 41/227/5 53/226/5 58/230/5 49/235/5
f 49/235/5 58/230/5 54/222/5 43/232/5
f 44/223/3 50/231/3 95/236/3 96/224/3
f 42/234/3 53/226/3 93/229/3 94/237/3
f 97/225/11 96/224/11 121/238/11 122/239/11
f 93/229/17 92/228/17 117/240/17 118/241/17
f 98/233/18 97/225/18 122/239/18 123/242/18
f 96/224/15 95/236/15 120/243/15 121/238/15
f 94/237/12 93/229/12 118/241/12 119/244/12
f 92/228/13 91/245/13 116/246/13 117/240/13
f 95/236/14 94/237/14 119/244/14 120/243/14
f 91/245/16 98/233/16 123/242/16 116/246/16
f 49/235/3 43/232/3 98/233/3 91/245/3
f 50/231/3 42/234/3 94/237/3 95/236/3
f 41/227/3 49/235/3 91/245/3 92/228/3
